<svg width="11" height="12" viewBox="0 0 11 12" fill="none" xmlns="http://www.w3.org/2000/svg">
<path d="M1.93205 11.6744C1.74624 11.5671 1.61065 11.3904 1.55512 11.1832C1.49959 10.9759 1.52866 10.7551 1.63594 10.5693L6.37499 2.36103L1.85493 3.84539C1.65148 3.91093 1.43036 3.89329 1.23988 3.79632C1.0494 3.69936 0.905027 3.53096 0.838307 3.32789C0.771588 3.12483 0.787941 2.90362 0.883795 2.71257C0.979649 2.52153 1.14721 2.37618 1.34988 2.30828L7.88177 0.163259C7.98999 0.127582 8.10453 0.115172 8.21789 0.126841C8.33124 0.13851 8.44085 0.173995 8.53954 0.230972C8.63822 0.287949 8.72376 0.365132 8.79054 0.457466C8.85733 0.5498 8.90385 0.6552 8.92707 0.766764L10.3354 7.49605C10.3578 7.6003 10.3594 7.70795 10.3401 7.81282C10.3208 7.91769 10.2809 8.0177 10.2228 8.10711C10.1647 8.19652 10.0895 8.27355 10.0015 8.33379C9.91347 8.39403 9.81444 8.43627 9.71007 8.4581C9.60569 8.47993 9.49803 8.4809 9.39327 8.46097C9.28852 8.44104 9.18874 8.4006 9.09967 8.34197C9.0106 8.28334 8.934 8.20768 8.87428 8.11934C8.81456 8.031 8.77289 7.93173 8.75167 7.82722L7.77619 3.17002L3.03715 11.3783C2.92987 11.5641 2.75317 11.6997 2.54592 11.7552C2.33868 11.8107 2.11786 11.7817 1.93205 11.6744Z" fill="white"/>
</svg>
